# xmcd
#
# Track frame offsets:
#   150
#   8110
#   19067
#   34589
#   46356
#   56495
#   65277
#   78875
#   88516
#   99714
#   109086
#   120130
#   131118
#   140504
#   147767
#
# Disc length: 2157 seconds
#
# Revision: 0
# Processed by: cddbd v1.5.1PL2 Copyright (c) Steve Scherf et al.
# Submitted via: GXTranscoder 2.0.1939
#
DISCID=bc086b0f
DTITLE=Gloria Benavides - Los primeros exitos
DYEAR=1900
DGENRE=Blues
TTITLE0=Besos y  twist
TTITLE1=Amor por telefono
TTITLE2=Bossanova
TTITLE3=La gotita
TTITLE4=Sabado y domingo
TTITLE5=luna dea azucar
TTITLE6=Las peliculas tristes me hacen llorar
TTITLE7=Norman
TTITLE8=Pelo de zanahoria
TTITLE9=Terminaron las clases
TTITLE10=A mi edad
TTITLE11=Gigi.la coqueta
TTITLE12=Reina encantadora
TTITLE13=A clases otra vez
TTITLE14=Dos años
EXTD=
EXTT0=
EXTT1=
EXTT2=
EXTT3=
EXTT4=
EXTT5=
EXTT6=
EXTT7=
EXTT8=
EXTT9=
EXTT10=
EXTT11=
EXTT12=
EXTT13=
EXTT14=
PLAYORDER=
